HIERARCHY
ROOT mixamorig:Hips
{
	OFFSET -0.000008 104.274872 1.554316
	CHANNELS 6 Xposition Yposition Zposition Xrotation Yrotation Zrotation
	JOINT mixamorig:Spine
	{
		OFFSET -0.000005 10.181595 0.131519
		CHANNELS 6 Xposition Yposition Zposition Xrotation Yrotation Zrotation
		JOINT mixamorig:Spine1
		{
			OFFSET -0.000000 9.893959 -1.470707
			CHANNELS 6 Xposition Yposition Zposition Xrotation Yrotation Zrotation
			JOINT mixamorig:Spine2
			{
				OFFSET -0.000000 9.220757 -1.370641
				CHANNELS 6 Xposition Yposition Zposition Xrotation Yrotation Zrotation
				JOINT mixamorig:Neck
				{
					OFFSET 0.000001 16.740417 -2.049036
					CHANNELS 6 Xposition Yposition Zposition Xrotation Yrotation Zrotation
					JOINT mixamorig:Head
					{
						OFFSET 0.000000 9.617874 1.685006
						CHANNELS 6 Xposition Yposition Zposition Xrotation Yrotation Zrotation
						JOINT mixamorig:HeadTop_End
						{
							OFFSET 0.000002 22.037354 7.501101
							CHANNELS 6 Xposition Yposition Zposition Xrotation Yrotation Zrotation
							End Site
							{
								OFFSET 0.000168 2310.654297 -282.823242
							}
						}
					}
				}
				JOINT mixamorig:RightShoulder
				{
					OFFSET -4.569970 11.014908 -2.160885
					CHANNELS 6 Xposition Yposition Zposition Xrotation Yrotation Zrotation
					JOINT mixamorig:RightArm
					{
						OFFSET -10.592851 -0.524811 -2.232101
						CHANNELS 6 Xposition Yposition Zposition Xrotation Yrotation Zrotation
						JOINT mixamorig:RightForeArm
						{
							OFFSET -27.841511 0.000031 -0.000004
							CHANNELS 6 Xposition Yposition Zposition Xrotation Yrotation Zrotation
							JOINT mixamorig:RightHand
							{
								OFFSET -28.328831 -0.000015 0.000015
								CHANNELS 6 Xposition Yposition Zposition Xrotation Yrotation Zrotation
								JOINT mixamorig:RightHandThumb1
								{
									OFFSET -2.464806 -1.573990 2.681852
									CHANNELS 6 Xposition Yposition Zposition Xrotation Yrotation Zrotation
									JOINT mixamorig:RightHandThumb2
									{
										OFFSET -3.215179 -1.872803 1.924282
										CHANNELS 6 Xposition Yposition Zposition Xrotation Yrotation Zrotation
										JOINT mixamorig:RightHandThumb3
										{
											OFFSET -2.654831 -1.527969 1.512609
											CHANNELS 6 Xposition Yposition Zposition Xrotation Yrotation Zrotation
											JOINT mixamorig:RightHandThumb4
											{
												OFFSET -2.018814 -1.152008 1.108052
												CHANNELS 6 Xposition Yposition Zposition Xrotation Yrotation Zrotation
												End Site
												{
													OFFSET -188.809540 -114.533607 132.431396
												}
											}
										}
									}
								}
								JOINT mixamorig:RightHandIndex1
								{
									OFFSET -9.108284 -0.517868 2.259835
									CHANNELS 6 Xposition Yposition Zposition Xrotation Yrotation Zrotation
									JOINT mixamorig:RightHandIndex2
									{
										OFFSET -3.699989 0.000000 0.001215
										CHANNELS 6 Xposition Yposition Zposition Xrotation Yrotation Zrotation
										JOINT mixamorig:RightHandIndex3
										{
											OFFSET -2.850006 0.000031 -0.000522
											CHANNELS 6 Xposition Yposition Zposition Xrotation Yrotation Zrotation
											JOINT mixamorig:RightHandIndex4
											{
												OFFSET -2.772186 -0.000015 -0.000020
												CHANNELS 6 Xposition Yposition Zposition Xrotation Yrotation Zrotation
												End Site
												{
													OFFSET -277.218445 0.000000 -0.050231
												}
											}
										}
									}
								}
								JOINT mixamorig:RightHandMiddle1
								{
									OFFSET -9.532516 -0.000031 -0.000023
									CHANNELS 6 Xposition Yposition Zposition Xrotation Yrotation Zrotation
									JOINT mixamorig:RightHandMiddle2
									{
										OFFSET -3.700005 -0.000015 0.003713
										CHANNELS 6 Xposition Yposition Zposition Xrotation Yrotation Zrotation
										JOINT mixamorig:RightHandMiddle3
										{
											OFFSET -2.949974 0.000015 -0.002054
											CHANNELS 6 Xposition Yposition Zposition Xrotation Yrotation Zrotation
											JOINT mixamorig:RightHandMiddle4
											{
												OFFSET -2.946640 0.000000 -0.000156
												CHANNELS 6 Xposition Yposition Zposition Xrotation Yrotation Zrotation
												End Site
												{
													OFFSET -294.664337 0.000000 -0.113670
												}
											}
										}
									}
								}
								JOINT mixamorig:RightHandRing1
								{
									OFFSET -9.103600 -0.043076 -1.865134
									CHANNELS 6 Xposition Yposition Zposition Xrotation Yrotation Zrotation
									JOINT mixamorig:RightHandRing2
									{
										OFFSET -3.379288 0.000000 -0.001055
										CHANNELS 6 Xposition Yposition Zposition Xrotation Yrotation Zrotation
										JOINT mixamorig:RightHandRing3
										{
											OFFSET -2.889687 -0.000015 0.000379
											CHANNELS 6 Xposition Yposition Zposition Xrotation Yrotation Zrotation
											JOINT mixamorig:RightHandRing4
											{
												OFFSET -2.638809 -0.000015 0.000941
												CHANNELS 6 Xposition Yposition Zposition Xrotation Yrotation Zrotation
												End Site
												{
													OFFSET -263.880371 0.000000 0.516020
												}
											}
										}
									}
								}
								JOINT mixamorig:RightHandPinky1
								{
									OFFSET -8.076683 -0.486710 -3.806280
									CHANNELS 6 Xposition Yposition Zposition Xrotation Yrotation Zrotation
									JOINT mixamorig:RightHandPinky2
									{
										OFFSET -3.600014 -0.000015 -0.003747
										CHANNELS 6 Xposition Yposition Zposition Xrotation Yrotation Zrotation
										JOINT mixamorig:RightHandPinky3
										{
											OFFSET -2.099983 0.000000 -0.005739
											CHANNELS 6 Xposition Yposition Zposition Xrotation Yrotation Zrotation
											JOINT mixamorig:RightHandPinky4
											{
												OFFSET -2.115768 -0.000031 -0.003680
												CHANNELS 6 Xposition Yposition Zposition Xrotation Yrotation Zrotation
												End Site
												{
													OFFSET -211.577087 0.000000 -0.350686
												}
											}
										}
									}
								}
							}
						}
					}
				}
				JOINT mixamorig:LeftShoulder
				{
					OFFSET 4.570447 11.014725 -2.160855
					CHANNELS 6 Xposition Yposition Zposition Xrotation Yrotation Zrotation
					JOINT mixamorig:LeftArm
					{
						OFFSET 10.592371 -0.524597 -2.232119
						CHANNELS 6 Xposition Yposition Zposition Xrotation Yrotation Zrotation
						JOINT mixamorig:LeftForeArm
						{
							OFFSET 27.841532 -0.000031 0.000026
							CHANNELS 6 Xposition Yposition Zposition Xrotation Yrotation Zrotation
							JOINT mixamorig:LeftHand
							{
								OFFSET 28.328846 -0.000061 0.000022
								CHANNELS 6 Xposition Yposition Zposition Xrotation Yrotation Zrotation
								JOINT mixamorig:LeftHandThumb1
								{
									OFFSET 2.466141 -1.576172 2.681732
									CHANNELS 6 Xposition Yposition Zposition Xrotation Yrotation Zrotation
									JOINT mixamorig:LeftHandThumb2
									{
										OFFSET 3.217812 -1.872070 1.916482
										CHANNELS 6 Xposition Yposition Zposition Xrotation Yrotation Zrotation
										JOINT mixamorig:LeftHandThumb3
										{
											OFFSET 2.656029 -1.528778 1.514513
											CHANNELS 6 Xposition Yposition Zposition Xrotation Yrotation Zrotation
											JOINT mixamorig:LeftHandThumb4
											{
												OFFSET 2.020889 -1.154053 1.115139
												CHANNELS 6 Xposition Yposition Zposition Xrotation Yrotation Zrotation
												End Site
												{
													OFFSET 190.885437 -115.081749 130.048782
												}
											}
										}
									}
								}
								JOINT mixamorig:LeftHandIndex1
								{
									OFFSET 9.109314 -0.518021 2.259871
									CHANNELS 6 Xposition Yposition Zposition Xrotation Yrotation Zrotation
									JOINT mixamorig:LeftHandIndex2
									{
										OFFSET 3.699989 0.000000 -0.000322
										CHANNELS 6 Xposition Yposition Zposition Xrotation Yrotation Zrotation
										JOINT mixamorig:LeftHandIndex3
										{
											OFFSET 2.850006 0.000000 0.000352
											CHANNELS 6 Xposition Yposition Zposition Xrotation Yrotation Zrotation
											JOINT mixamorig:LeftHandIndex4
											{
												OFFSET 2.774864 -0.000031 -0.000027
												CHANNELS 6 Xposition Yposition Zposition Xrotation Yrotation Zrotation
												End Site
												{
													OFFSET 277.486267 0.000000 -0.009857
												}
											}
										}
									}
								}
								JOINT mixamorig:LeftHandMiddle1
								{
									OFFSET 9.533394 0.000061 0.000044
									CHANNELS 6 Xposition Yposition Zposition Xrotation Yrotation Zrotation
									JOINT mixamorig:LeftHandMiddle2
									{
										OFFSET 3.699989 -0.000015 -0.000231
										CHANNELS 6 Xposition Yposition Zposition Xrotation Yrotation Zrotation
										JOINT mixamorig:LeftHandMiddle3
										{
											OFFSET 2.949997 -0.000015 -0.000059
											CHANNELS 6 Xposition Yposition Zposition Xrotation Yrotation Zrotation
											JOINT mixamorig:LeftHandMiddle4
											{
												OFFSET 2.952896 0.000031 0.000063
												CHANNELS 6 Xposition Yposition Zposition Xrotation Yrotation Zrotation
												End Site
												{
													OFFSET 295.289337 0.000000 0.022810
												}
											}
										}
									}
								}
								JOINT mixamorig:LeftHandRing1
								{
									OFFSET 9.104523 -0.042999 -1.865074
									CHANNELS 6 Xposition Yposition Zposition Xrotation Yrotation Zrotation
									JOINT mixamorig:LeftHandRing2
									{
										OFFSET 3.150009 -0.000031 0.000043
										CHANNELS 6 Xposition Yposition Zposition Xrotation Yrotation Zrotation
										JOINT mixamorig:LeftHandRing3
										{
											OFFSET 2.949982 -0.000015 0.000040
											CHANNELS 6 Xposition Yposition Zposition Xrotation Yrotation Zrotation
											JOINT mixamorig:LeftHandRing4
											{
												OFFSET 2.644348 0.000000 0.000057
												CHANNELS 6 Xposition Yposition Zposition Xrotation Yrotation Zrotation
												End Site
												{
													OFFSET 264.434631 0.000000 0.012105
												}
											}
										}
									}
								}
								JOINT mixamorig:LeftHandPinky1
								{
									OFFSET 8.077789 -0.486847 -3.806259
									CHANNELS 6 Xposition Yposition Zposition Xrotation Yrotation Zrotation
									JOINT mixamorig:LeftHandPinky2
									{
										OFFSET 3.599953 0.000031 0.014727
										CHANNELS 6 Xposition Yposition Zposition Xrotation Yrotation Zrotation
										JOINT mixamorig:LeftHandPinky3
										{
											OFFSET 2.100021 0.000015 0.007705
											CHANNELS 6 Xposition Yposition Zposition Xrotation Yrotation Zrotation
											JOINT mixamorig:LeftHandPinky4
											{
												OFFSET 2.125504 0.000031 0.007517
												CHANNELS 6 Xposition Yposition Zposition Xrotation Yrotation Zrotation
												End Site
												{
													OFFSET 212.550781 0.000000 0.625752
												}
											}
										}
									}
								}
							}
						}
					}
				}
			}
		}
	}
	JOINT mixamorig:RightUpLeg
	{
		OFFSET -8.207787 -6.751648 -1.599560
		CHANNELS 6 Xposition Yposition Zposition Xrotation Yrotation Zrotation
		JOINT mixamorig:RightLeg
		{
			OFFSET -0.000002 -44.370117 0.345942
			CHANNELS 6 Xposition Yposition Zposition Xrotation Yrotation Zrotation
			JOINT mixamorig:RightFoot
			{
				OFFSET 0.000003 -44.423679 -3.043532
				CHANNELS 6 Xposition Yposition Zposition Xrotation Yrotation Zrotation
				JOINT mixamorig:RightToeBase
				{
					OFFSET -0.000002 -8.728671 10.710558
					CHANNELS 6 Xposition Yposition Zposition Xrotation Yrotation Zrotation
					JOINT mixamorig:RightToe_End
					{
						OFFSET -0.000001 -0.000679 9.278119
						CHANNELS 6 Xposition Yposition Zposition Xrotation Yrotation Zrotation
						End Site
						{
							OFFSET 0.000000 -0.067690 927.812134
						}
					}
				}
			}
		}
	}
	JOINT mixamorig:LeftUpLeg
	{
		OFFSET 8.207793 -6.751686 -1.599556
		CHANNELS 6 Xposition Yposition Zposition Xrotation Yrotation Zrotation
		JOINT mixamorig:LeftLeg
		{
			OFFSET -0.000004 -44.370014 0.346954
			CHANNELS 6 Xposition Yposition Zposition Xrotation Yrotation Zrotation
			JOINT mixamorig:LeftFoot
			{
				OFFSET -0.000001 -44.423672 -3.044401
				CHANNELS 6 Xposition Yposition Zposition Xrotation Yrotation Zrotation
				JOINT mixamorig:LeftToeBase
				{
					OFFSET -0.000002 -8.728669 10.710558
					CHANNELS 6 Xposition Yposition Zposition Xrotation Yrotation Zrotation
					JOINT mixamorig:LeftToe_End
					{
						OFFSET -0.000003 -0.000679 9.278133
						CHANNELS 6 Xposition Yposition Zposition Xrotation Yrotation Zrotation
						End Site
						{
							OFFSET 0.000000 -0.068021 927.813477
						}
					}
				}
			}
		}
	}
}
MOTION
Frames: 3
Frame Time: 0.033333
0.000006 104.270477 1.554256 0.000010 0.000003 -0.000113 -0.000005 10.181587 0.131522 0.000001 -0.000003 0.000084 -0.000000 9.893967 -1.470711 0.000001 0.000000 -0.000000 -0.000000 9.220802 -1.370642 0.000000 -0.000000 -0.000000 0.000001 16.740433 -2.049030 0.000000 -0.000000 -0.000000 0.000000 9.617859 1.685014 0.000000 0.000000 0.000000 0.000002 22.037384 7.501101 0.000000 -0.000000 0.000000 -4.569968 11.014880 -2.160881 0.000008 0.000001 -0.000038 -10.592875 -0.524766 -2.231888 75.260010 29.620782 -23.042700 -27.841499 -0.000008 0.000554 -49.401963 109.498027 66.113526 -28.328827 0.000019 0.000021 -0.000321 -0.000044 0.000006 -2.464386 -1.573816 2.682311 -45.234816 -156.055875 -4.406401 -3.215258 -1.872551 1.924639 149.540394 32.626933 17.056541 -2.654957 -1.527873 1.513055 146.506041 27.706200 -29.520289 -2.018834 -1.151998 1.108059 -0.000003 0.000003 0.000005 -9.108363 -0.517551 2.260164 108.972103 14.534666 -20.326493 -3.700043 0.000324 0.001529 103.834715 10.830668 -13.766646 -2.850076 0.000376 -0.000225 102.683350 8.210586 -10.252803 -2.772178 -0.000001 -0.000019 0.000001 -0.000002 -0.000000 -9.532571 0.000276 0.000278 103.447641 14.461363 -18.445443 -3.700057 0.000337 0.004007 102.714065 9.842025 -12.177699 -2.950053 0.000347 -0.001765 104.740234 9.659147 -12.499968 -2.946641 0.000013 -0.000156 -0.000000 0.000000 0.000001 -9.103686 -0.042750 -1.864821 104.800968 16.441365 -21.193379 -3.379308 0.000336 -0.000773 104.844018 7.278416 -9.471878 -2.889742 0.000346 0.000717 111.615038 5.866470 -8.692199 -2.638800 -0.000014 0.000945 0.000002 0.000002 -0.000001 -8.076750 -0.486389 -3.805946 104.744714 18.852591 -24.111531 -3.600030 0.000278 -0.003449 104.444978 6.389491 -7.792555 -2.099984 0.000327 -0.005411 107.622341 3.132133 -3.991120 -2.115763 -0.000028 -0.003679 0.000001 0.000002 -0.000002 4.570446 11.014691 -2.160851 -0.000018 0.000010 -0.000021 10.592525 -0.524532 -2.232400 68.563993 -63.209665 45.512306 27.841719 -0.000076 -0.000085 242.322653 -70.835687 260.751351 28.328833 0.000001 0.000029 0.000021 -0.000089 -0.000000 2.466164 -1.576131 2.681875 144.911643 186.742522 -169.530732 3.217842 -1.871944 1.916574 122.373685 165.917890 -163.247559 2.656055 -1.528739 1.514622 112.447248 162.454478 -158.626130 2.020895 -1.154064 1.115144 0.000003 0.000002 0.000001 9.109070 -0.517745 2.260027 196.775168 -14.850595 -82.943529 3.700096 0.000147 -0.000393 -73.239565 -148.513161 -138.430326 2.850060 0.000115 0.000233 63.828726 -20.309074 12.728922 2.774888 0.000004 -0.000026 -0.000000 0.000000 -0.000000 9.533267 0.000414 0.000214 -155.457496 -9.272756 -40.877907 3.700084 0.000161 -0.000353 -266.115836 -20.965809 -337.601579 2.950037 0.000083 -0.000194 -305.321258 -12.155105 6.303200 2.952873 -0.000046 0.000067 -0.000000 0.000002 -0.000000 9.104444 -0.042687 -1.864872 38.457148 -170.910294 -205.679740 3.149999 0.000271 -0.000125 -263.966348 1.295323 -1.437775 2.949975 0.000102 -0.000117 -306.077005 3.881512 -1.974322 2.644319 0.000025 0.000058 -0.000001 0.000002 0.000003 8.077763 -0.486549 -3.806026 49.119442 -176.030914 170.407783 3.599832 0.000230 0.014524 -91.691410 150.158471 151.143207 2.099940 0.000123 0.007516 -128.323477 155.359264 168.002368 2.125508 -0.000025 0.007521 -0.000001 -0.000002 -0.000002 -8.207786 -6.751667 -1.599560 -0.077001 -0.000003 0.000080 -0.000002 -44.370110 0.345938 0.153719 -0.000000 -0.000000 0.000000 -44.423679 -3.043532 -0.076700 0.000000 -0.000002 -0.000006 -8.728667 10.710559 -0.000009 -0.000000 -0.000000 -0.000001 -0.000679 9.278123 0.000000 -0.000000 -0.000000 8.207792 -6.751710 -1.599556 -0.074518 -0.000003 0.000081 -0.000002 -44.370014 0.346960 0.148822 0.000002 0.000000 -0.000001 -44.423664 -3.044403 -0.074314 0.000000 -0.000002 -0.000004 -8.728671 10.710558 0.000007 -0.000000 -0.000000 0.000000 -0.000680 9.278137 -0.000000 0.000000 -0.000001 
0.000006 104.270477 1.554256 0.000010 0.000003 -0.000113 -0.000005 10.181587 0.131522 0.000001 -0.000003 0.000084 -0.000000 9.893967 -1.470711 0.000001 0.000000 -0.000000 -0.000000 9.220802 -1.370642 0.000000 -0.000000 -0.000000 0.000001 16.740433 -2.049030 0.000000 -0.000000 -0.000000 0.000000 9.617859 1.685014 0.000000 0.000000 0.000000 0.000002 22.037384 7.501101 0.000000 -0.000000 0.000000 -4.569968 11.014880 -2.160881 0.000008 0.000001 -0.000038 -10.592874 -0.524766 -2.231890 75.183314 29.350655 -22.798075 -27.841515 0.000014 0.000571 -48.998377 109.225879 65.364487 -28.328840 0.000019 0.000027 -0.000319 -0.000046 0.000006 -2.464395 -1.573831 2.682318 -44.872236 -155.690365 -3.652853 -3.215256 -1.872550 1.924623 148.944282 32.722671 18.929791 -2.654963 -1.527858 1.513064 146.448299 27.745284 -29.165639 -2.018831 -1.151997 1.108072 -0.000005 -0.000002 0.000004 -9.108370 -0.517556 2.260156 109.327997 14.376454 -20.237999 -3.700047 0.000312 0.001538 104.242702 10.818833 -13.851941 -2.850086 0.000384 -0.000242 103.163382 8.292143 -10.443358 -2.772187 -0.000017 -0.000016 -0.000000 0.000002 0.000000 -9.532577 0.000273 0.000285 103.909867 14.338109 -18.440483 -3.700064 0.000336 0.004001 102.889942 10.036411 -12.458377 -2.950034 0.000337 -0.001768 104.962994 9.915199 -12.881699 -2.946619 0.000001 -0.000152 0.000000 -0.000002 0.000001 -9.103701 -0.042778 -1.864815 105.088375 16.486825 -21.359649 -3.379327 0.000316 -0.000759 104.983819 7.534143 -9.827989 -2.889747 0.000350 0.000690 111.730707 6.110774 -9.070484 -2.638794 0.000011 0.000942 0.000001 -0.000001 0.000000 -8.076756 -0.486417 -3.805952 105.311285 18.829025 -24.321901 -3.600040 0.000300 -0.003449 104.671010 6.508586 -7.977473 -2.099986 0.000334 -0.005412 107.828818 3.291848 -4.224466 -2.115753 -0.000051 -0.003679 -0.000001 0.000001 -0.000003 4.570446 11.014691 -2.160851 -0.000018 0.000010 -0.000021 10.592522 -0.524533 -2.232399 68.664267 -63.056996 45.467060 27.841709 -0.000073 -0.000083 245.231112 -70.219139 264.615435 28.328842 -0.000027 0.000029 0.000023 -0.000088 -0.000001 2.466177 -1.576160 2.681856 148.809892 195.079505 -169.032579 3.217835 -1.871958 1.916572 126.061386 170.108402 -164.856875 2.656065 -1.528761 1.514617 117.451742 163.244677 -160.779402 2.020891 -1.154038 1.115150 0.000002 0.000002 0.000003 9.109251 -0.517687 2.260065 220.662416 -7.980355 -21.302624 3.699859 0.000284 -0.000127 37.096308 -165.497355 -221.556064 2.849858 0.000334 0.000538 214.405608 -15.227173 -46.702347 2.774887 -0.000030 -0.000016 0.000001 -0.000000 -0.000000 9.533381 0.000358 0.000253 -131.758270 -4.044241 -9.002922 3.699942 0.000321 -0.000014 -134.364041 -8.143142 -379.201448 2.949949 0.000308 0.000138 -131.497138 -9.877010 -21.719440 2.952873 -0.000031 0.000064 -0.000000 0.000001 0.000000 9.104513 -0.042763 -1.864836 58.401819 -176.223252 -186.754693 3.150022 0.000270 0.000239 -125.506502 3.850028 7.465352 2.950006 0.000232 0.000247 -480.059245 4.932985 8.541006 2.644331 0.000034 0.000058 0.000001 0.000000 -0.000002 8.077778 -0.486613 -3.806012 66.178140 -177.477643 175.448176 3.600013 0.000232 0.014939 64.198102 168.164776 197.970615 2.100056 0.000174 0.007895 -290.784895 162.730719 204.095164 2.125506 -0.000034 0.007519 0.000001 -0.000000 -0.000001 -8.207786 -6.751667 -1.599560 -0.077001 -0.000003 0.000080 -0.000002 -44.370110 0.345938 0.153719 -0.000000 -0.000000 0.000000 -44.423679 -3.043532 -0.076700 0.000000 -0.000002 -0.000006 -8.728667 10.710559 -0.000009 -0.000000 -0.000000 -0.000001 -0.000679 9.278123 0.000000 -0.000000 -0.000000 8.207792 -6.751710 -1.599556 -0.074518 -0.000003 0.000081 -0.000002 -44.370014 0.346960 0.148822 0.000002 0.000000 -0.000001 -44.423664 -3.044403 -0.074314 0.000000 -0.000002 -0.000004 -8.728671 10.710558 0.000007 -0.000000 -0.000000 0.000000 -0.000680 9.278137 -0.000000 0.000000 -0.000001 
0.000006 104.270477 1.554256 0.000010 0.000003 -0.000113 -0.000005 10.181587 0.131522 0.000001 -0.000003 0.000084 -0.000000 9.893967 -1.470711 0.000001 0.000000 -0.000000 -0.000000 9.220802 -1.370642 0.000000 -0.000000 -0.000000 0.000001 16.740433 -2.049030 0.000000 -0.000000 -0.000000 0.000000 9.617859 1.685014 0.000000 0.000000 0.000000 0.000002 22.037384 7.501101 0.000000 -0.000000 0.000000 -4.569968 11.014880 -2.160881 0.000008 0.000001 -0.000038 -10.592871 -0.524764 -2.231886 75.149703 29.577308 -22.963726 -27.841507 0.000005 0.000556 -48.838650 109.158622 65.107405 -28.328825 0.000020 0.000025 -0.000318 -0.000044 0.000005 -2.464388 -1.573842 2.682340 -41.520293 -153.604876 3.200493 -3.215255 -1.872517 1.924612 148.528119 33.251550 24.085499 -2.654958 -1.527862 1.513054 147.539135 27.550707 -29.672217 -2.018831 -1.152008 1.108068 -0.000006 -0.000002 0.000004 -9.108358 -0.517567 2.260179 109.690413 14.993215 -21.233279 -3.700073 0.000333 0.001551 104.561563 11.117396 -14.314539 -2.850080 0.000376 -0.000233 103.626804 8.568677 -10.880471 -2.772168 -0.000018 -0.000018 0.000000 -0.000004 -0.000001 -9.532576 0.000274 0.000282 103.942966 15.189297 -19.529726 -3.700077 0.000328 0.004015 102.914265 10.207426 -12.677238 -2.950039 0.000330 -0.001753 105.005771 9.975499 -12.969763 -2.946631 0.000002 -0.000156 -0.000000 -0.000002 -0.000000 -9.103699 -0.042759 -1.864824 104.092985 18.079279 -22.999871 -3.379315 0.000330 -0.000776 104.902232 8.276378 -10.776222 -2.889778 0.000334 0.000714 111.500024 6.282375 -9.282785 -2.638793 0.000017 0.000939 0.000001 -0.000001 0.000003 -8.076758 -0.486411 -3.805945 104.024696 20.531815 -25.918411 -3.600035 0.000281 -0.003446 104.282714 8.332088 -10.250660 -2.100003 0.000328 -0.005416 107.909141 4.482631 -5.859850 -2.115774 -0.000055 -0.003681 -0.000000 -0.000001 -0.000007 4.570446 11.014691 -2.160851 -0.000018 0.000010 -0.000021 10.592524 -0.524531 -2.232402 69.220320 -63.096727 45.925362 27.841707 -0.000084 -0.000092 247.781559 -70.421791 267.174734 28.328831 -0.000013 0.000036 0.000022 -0.000090 0.000000 2.466165 -1.576137 2.681856 148.579154 190.794737 -169.664658 3.217825 -1.871979 1.916586 126.718874 170.794904 -165.114905 2.656059 -1.528737 1.514624 120.669635 167.046497 -162.486799 2.020887 -1.154059 1.115147 0.000002 0.000002 0.000004 9.109282 -0.517689 2.260080 225.217374 -4.789431 -11.448282 3.699908 0.000319 -0.000132 40.453141 -169.938344 -206.900432 2.849906 0.000364 0.000537 216.867399 -10.504184 -30.834769 2.774880 -0.000030 -0.000029 0.000000 -0.000001 -0.000000 9.533396 0.000361 0.000271 -129.837183 -2.461154 -5.241164 3.699947 0.000329 -0.000029 -133.437704 -6.813555 -375.749689 2.949946 0.000325 0.000138 -135.943113 -7.604237 -18.660109 2.952881 -0.000016 0.000067 -0.000000 0.000001 -0.000000 9.104514 -0.042717 -1.864843 59.251700 -176.644155 -185.900250 3.150002 0.000303 0.000263 -127.575585 -1.174620 -2.388628 2.949978 0.000294 0.000232 -492.921638 -0.711931 -1.637509 2.644321 0.000031 0.000064 0.000001 -0.000001 -0.000001 8.077775 -0.486604 -3.806005 67.505437 -176.612163 174.279093 3.599981 0.000280 0.014951 60.638433 174.632282 188.377642 2.100051 0.000264 0.007905 -304.111495 170.930320 196.126751 2.125510 -0.000016 0.007517 -0.000005 -0.000004 -0.000002 -8.207786 -6.751667 -1.599560 -0.077001 -0.000003 0.000080 -0.000002 -44.370110 0.345938 0.153719 -0.000000 -0.000000 0.000000 -44.423679 -3.043532 -0.076700 0.000000 -0.000002 -0.000006 -8.728667 10.710559 -0.000009 -0.000000 -0.000000 -0.000001 -0.000679 9.278123 0.000000 -0.000000 -0.000000 8.207792 -6.751710 -1.599556 -0.074518 -0.000003 0.000081 -0.000002 -44.370014 0.346960 0.148822 0.000002 0.000000 -0.000001 -44.423664 -3.044403 -0.074314 0.000000 -0.000002 -0.000004 -8.728671 10.710558 0.000007 -0.000000 -0.000000 0.000000 -0.000680 9.278137 -0.000000 0.000000 -0.000001 
